# xmcd
#
# Track frame offsets: 
#        150
#        13614
#        32450
#        52569
#        84320
#        100570
#        119955
#        138847
#        175820
#        208092
#        240420
#        271579
#
# Disc length: 3998 seconds
#
# Revision: 1
# Processed by: cddbd v1.5.2PL0 Copyright (c) Steve Scherf et al.
# Submitted via: ExactAudioCopyFreeDBPlugin 1.0
#
DISCID=8a0f9c0c
DTITLE=Various Artist - Uncut Detroit II
DYEAR=1999
DGENRE=Blues
TTITLE0=Priscilla Price And The Kenny Miller Band - Crazy To Care
TTITLE1=Priscilla Price And The Kenny Miller Band - Mighty Big Shoes T
TTITLE1=o Fill
TTITLE2=The Alligators - Cryin' For My Baby
TTITLE3=The Alligators - My Little Girl
TTITLE4=Al Hill And The Love Butlers - Nothing I Can Do
TTITLE5=Al Hill And The Love Butlers - Cadillac Boogie
TTITLE6=Alberta Adams And R.J.'s Blues Crew - He May Be Your Man
TTITLE7=Alberta Adams And R.J.'s Blues Crew - Remember Me
TTITLE8=The Butler Twins Blues Band - Hey Baby Dont You Know Your Dadd
TTITLE8=y Loves You So
TTITLE9=The Butler Twins Blues Band - I Ain't Got Nobody To Tell My Tr
TTITLE9=oubles To
TTITLE10=Mystery Train Featuring Jim McCarty - As The Years Go Passing
TTITLE10=By
TTITLE11=Mystery Train Featuring Jim McCarty - You Get To Help Me
EXTD=YEAR: 1999
EXTT0=
EXTT1=
EXTT2=
EXTT3=
EXTT4=
EXTT5=
EXTT6=
EXTT7=
EXTT8=
EXTT9=
EXTT10=
EXTT11=
PLAYORDER=
